<svg width="71" height="103" viewBox="0 0 71 103" fill="none" xmlns="http://www.w3.org/2000/svg">
<g clip-path="url(#clip0_527_2019)">
<path fill-rule="evenodd" clip-rule="evenodd" d="M69.9038 100.09V100.917C70.0017 100.924 70.1016 100.93 70.2016 100.93C70.3369 100.93 70.4785 100.905 70.5826 100.814C70.6763 100.731 70.7158 100.624 70.7158 100.502C70.7158 100.38 70.6825 100.276 70.593 100.198C70.493 100.109 70.3494 100.086 70.2203 100.086C70.1141 100.086 70.0079 100.088 69.9038 100.092M56.216 100.888C56.216 101.112 56.2847 101.312 56.4409 101.474C56.5929 101.633 56.7823 101.71 57.003 101.71C57.2238 101.71 57.4153 101.637 57.5673 101.474C57.7214 101.31 57.7901 101.112 57.7901 100.888C57.7901 100.665 57.7214 100.464 57.5611 100.303C57.407 100.146 57.2217 100.067 57.001 100.067C56.7803 100.067 56.5929 100.144 56.4388 100.303C56.2806 100.466 56.2139 100.665 56.2139 100.888H56.216ZM50.0738 100.092V100.886H50.3903C50.5131 100.886 50.6255 100.849 50.7213 100.773C50.8171 100.698 50.8671 100.603 50.8671 100.481C50.8671 100.173 50.638 100.088 50.3611 100.088C50.2653 100.088 50.1696 100.09 50.0738 100.094V100.092ZM25.6756 101.037L25.3008 100.162L24.9219 101.037H25.6756ZM69.9038 101.091V101.854H69.7248V99.9204H69.7393C69.8164 99.9204 69.8934 99.9204 69.9725 99.9184C70.0516 99.9184 70.1287 99.9163 70.2078 99.9163C70.3202 99.9163 70.4368 99.9287 70.543 99.966C70.6242 99.9949 70.7033 100.038 70.7616 100.102C70.8095 100.158 70.847 100.218 70.872 100.289C70.8949 100.359 70.9053 100.431 70.9053 100.504C70.9053 100.669 70.8491 100.812 70.7283 100.928C70.5888 101.062 70.3973 101.101 70.2099 101.101C70.1099 101.101 70.0079 101.101 69.9059 101.091H69.9038ZM64.3612 99.9204H64.5403V101.041C64.5403 101.265 64.4945 101.503 64.33 101.666C64.1842 101.811 64.0031 101.875 63.7991 101.875C63.5804 101.875 63.3806 101.813 63.2244 101.656C63.0557 101.488 63.0058 101.252 63.0058 101.023V99.9204H63.1848V100.996C63.1848 101.182 63.2223 101.374 63.3493 101.519C63.4659 101.652 63.62 101.705 63.797 101.705C63.9594 101.705 64.1031 101.654 64.2072 101.527C64.3258 101.387 64.3571 101.188 64.3571 101.008V99.9184L64.3612 99.9204ZM56.0286 100.886C56.0286 100.615 56.1161 100.375 56.3055 100.179C56.495 99.9846 56.7303 99.8936 57.003 99.8936C57.2758 99.8936 57.5069 99.9846 57.6985 100.175C57.8921 100.369 57.9796 100.611 57.9796 100.884C57.9796 101.157 57.8921 101.397 57.6985 101.594C57.509 101.786 57.2737 101.875 57.003 101.875C56.7324 101.875 56.4971 101.788 56.3055 101.596C56.1098 101.401 56.0265 101.157 56.0265 100.884L56.0286 100.886ZM50.0738 101.054V101.854H49.8947V99.9204H49.9093C49.9926 99.9204 50.0759 99.9204 50.1591 99.9184C50.2299 99.9184 50.2987 99.9163 50.3694 99.9163C50.7567 99.9163 51.0545 100.053 51.0545 100.479C51.0545 100.613 51.0107 100.733 50.9212 100.835C50.8379 100.93 50.7317 100.99 50.611 101.019L51.2856 101.854H51.0628L50.4236 101.054H50.0717H50.0738ZM44.6395 101.072H44.0794V100.903H44.8123V101.608L44.8081 101.612C44.7144 101.703 44.5999 101.765 44.4771 101.809C44.3501 101.854 44.2168 101.877 44.0815 101.877C43.8129 101.877 43.5693 101.801 43.3819 101.606C43.1903 101.41 43.1174 101.155 43.1174 100.886C43.1174 100.617 43.1945 100.378 43.3798 100.181C43.563 99.9846 43.7941 99.8956 44.0648 99.8956C44.2814 99.8956 44.4916 99.9432 44.6645 100.078L44.6749 100.086L44.5916 100.229L44.5791 100.218C44.4396 100.102 44.2584 100.067 44.0815 100.067C43.8628 100.067 43.6734 100.138 43.5235 100.297C43.3694 100.462 43.309 100.665 43.309 100.888C43.309 101.112 43.3673 101.321 43.5235 101.484C43.6755 101.643 43.8712 101.707 44.0898 101.707C44.196 101.707 44.3022 101.687 44.4021 101.654C44.4896 101.625 44.577 101.581 44.6436 101.517V101.072H44.6395ZM31.3514 100.243V101.854H31.1807V99.9204H31.3223L32.6132 101.536V99.9204H32.7839V101.854H32.6423L31.3514 100.243ZM25.7506 101.207H24.849L24.57 101.854H24.3847L25.2321 99.9039H25.3737L26.2211 101.854H26.0275L25.7485 101.207H25.7506ZM19.396 101.366C19.396 101.29 19.3731 101.219 19.3252 101.159C19.2773 101.101 19.2169 101.058 19.1461 101.027C19.067 100.994 18.9879 100.959 18.9087 100.926C18.8275 100.89 18.7484 100.853 18.6693 100.816C18.5923 100.777 18.5298 100.721 18.4798 100.651C18.4257 100.572 18.4028 100.483 18.4028 100.388C18.4028 100.247 18.4528 100.131 18.5589 100.036C18.6755 99.9329 18.8255 99.8956 18.9795 99.8956C19.1773 99.8956 19.3689 99.9453 19.5042 100.094L19.5126 100.102L19.4126 100.237L19.4001 100.224C19.2856 100.111 19.1419 100.065 18.9837 100.065C18.8817 100.065 18.7755 100.086 18.6943 100.152C18.6214 100.212 18.5902 100.291 18.5902 100.384C18.5902 100.46 18.6131 100.526 18.661 100.586C18.7089 100.644 18.7692 100.686 18.8379 100.715C18.9171 100.746 18.9962 100.779 19.0774 100.812C19.1586 100.845 19.2377 100.88 19.3168 100.919C19.3939 100.959 19.4563 101.017 19.5063 101.089C19.5604 101.172 19.5833 101.265 19.5833 101.362C19.5833 101.515 19.523 101.639 19.4022 101.734C19.2731 101.836 19.1211 101.877 18.9566 101.877C18.8338 101.877 18.7151 101.85 18.6006 101.803C18.5027 101.757 18.409 101.691 18.3549 101.596L18.3507 101.587L18.459 101.463L18.4694 101.478C18.5256 101.55 18.6006 101.606 18.6839 101.645C18.7692 101.687 18.8588 101.71 18.9545 101.71C19.067 101.71 19.1732 101.683 19.2669 101.616C19.3543 101.556 19.396 101.472 19.396 101.366ZM12.3147 101.854H12.1356V99.9204H12.3147V101.854ZM12.5875 100.837L13.5452 101.854H13.312L12.3709 100.847L13.285 99.9204H13.5098L12.5875 100.835V100.837ZM6.85748 101.854H6.67842V99.9204H6.85748V101.854ZM0.788126 100.092H0.078125V99.9225H1.67719V100.092H0.967187V101.854H0.788126V100.092Z" fill="white"/>
<path d="M69.9038 100.09V100.917C70.0017 100.924 70.1016 100.93 70.2016 100.93C70.3369 100.93 70.4785 100.905 70.5826 100.814C70.6763 100.731 70.7158 100.624 70.7158 100.502C70.7158 100.38 70.6825 100.276 70.593 100.198C70.493 100.109 70.3494 100.086 70.2203 100.086C70.1141 100.086 70.0079 100.088 69.9038 100.092M56.216 100.888C56.216 101.112 56.2847 101.312 56.4409 101.474C56.5929 101.633 56.7823 101.71 57.003 101.71C57.2238 101.71 57.4153 101.637 57.5673 101.474C57.7214 101.31 57.7901 101.112 57.7901 100.888C57.7901 100.665 57.7214 100.464 57.5611 100.303C57.407 100.146 57.2217 100.067 57.001 100.067C56.7803 100.067 56.5929 100.144 56.4388 100.303C56.2806 100.466 56.2139 100.665 56.2139 100.888H56.216ZM50.0738 100.092V100.886H50.3903C50.5131 100.886 50.6255 100.849 50.7213 100.773C50.8171 100.698 50.8671 100.603 50.8671 100.481C50.8671 100.173 50.638 100.088 50.3611 100.088C50.2653 100.088 50.1696 100.09 50.0738 100.094V100.092ZM25.6756 101.037L25.3008 100.162L24.9219 101.037H25.6756ZM69.9038 101.091V101.854H69.7248V99.9204H69.7393C69.8164 99.9204 69.8934 99.9204 69.9725 99.9184C70.0516 99.9184 70.1287 99.9163 70.2078 99.9163C70.3202 99.9163 70.4368 99.9287 70.543 99.966C70.6242 99.9949 70.7033 100.038 70.7616 100.102C70.8095 100.158 70.847 100.218 70.872 100.289C70.8949 100.359 70.9053 100.431 70.9053 100.504C70.9053 100.669 70.8491 100.812 70.7283 100.928C70.5888 101.062 70.3973 101.101 70.2099 101.101C70.1099 101.101 70.0079 101.101 69.9059 101.091H69.9038ZM64.3612 99.9204H64.5403V101.041C64.5403 101.265 64.4945 101.503 64.33 101.666C64.1843 101.811 64.0031 101.875 63.7991 101.875C63.5804 101.875 63.3806 101.813 63.2244 101.656C63.0557 101.488 63.0058 101.252 63.0058 101.023V99.9204H63.1848V100.996C63.1848 101.182 63.2223 101.374 63.3493 101.519C63.4659 101.652 63.62 101.705 63.797 101.705C63.9594 101.705 64.1031 101.654 64.2072 101.527C64.3258 101.387 64.3571 101.188 64.3571 101.008V99.9184L64.3612 99.9204ZM56.0286 100.886C56.0286 100.615 56.1161 100.375 56.3055 100.179C56.495 99.9846 56.7303 99.8936 57.003 99.8936C57.2758 99.8936 57.5069 99.9846 57.6985 100.175C57.8921 100.369 57.9796 100.611 57.9796 100.884C57.9796 101.157 57.8921 101.397 57.6985 101.594C57.509 101.786 57.2737 101.875 57.003 101.875C56.7324 101.875 56.4971 101.788 56.3055 101.596C56.1098 101.401 56.0265 101.157 56.0265 100.884L56.0286 100.886ZM50.0738 101.054V101.854H49.8947V99.9204H49.9093C49.9926 99.9204 50.0759 99.9204 50.1591 99.9184C50.2299 99.9184 50.2987 99.9163 50.3694 99.9163C50.7567 99.9163 51.0545 100.053 51.0545 100.479C51.0545 100.613 51.0107 100.733 50.9212 100.835C50.8379 100.93 50.7317 100.99 50.611 101.019L51.2856 101.854H51.0628L50.4236 101.054H50.0717H50.0738ZM44.6395 101.072H44.0794V100.903H44.8123V101.608L44.8081 101.612C44.7144 101.703 44.5999 101.765 44.4771 101.809C44.3501 101.854 44.2168 101.877 44.0815 101.877C43.8129 101.877 43.5693 101.801 43.3819 101.606C43.1903 101.41 43.1174 101.155 43.1174 100.886C43.1174 100.617 43.1945 100.378 43.3798 100.181C43.563 99.9846 43.7941 99.8956 44.0648 99.8956C44.2814 99.8956 44.4916 99.9432 44.6645 100.078L44.6749 100.086L44.5916 100.229L44.5791 100.218C44.4396 100.102 44.2584 100.067 44.0815 100.067C43.8628 100.067 43.6734 100.138 43.5235 100.297C43.3694 100.462 43.309 100.665 43.309 100.888C43.309 101.112 43.3673 101.321 43.5235 101.484C43.6755 101.643 43.8712 101.707 44.0898 101.707C44.196 101.707 44.3022 101.687 44.4021 101.654C44.4896 101.625 44.577 101.581 44.6436 101.517V101.072H44.6395ZM31.3514 100.243V101.854H31.1807V99.9204H31.3223L32.6132 101.536V99.9204H32.7839V101.854H32.6423L31.3514 100.243ZM25.7506 101.207H24.849L24.57 101.854H24.3847L25.2321 99.9039H25.3737L26.2211 101.854H26.0275L25.7485 101.207H25.7506ZM19.396 101.366C19.396 101.29 19.3731 101.219 19.3252 101.159C19.2773 101.101 19.2169 101.058 19.1461 101.027C19.067 100.994 18.9879 100.959 18.9087 100.926C18.8275 100.89 18.7484 100.853 18.6693 100.816C18.5923 100.777 18.5298 100.721 18.4798 100.651C18.4257 100.572 18.4028 100.483 18.4028 100.388C18.4028 100.247 18.4528 100.131 18.5589 100.036C18.6755 99.9329 18.8255 99.8956 18.9795 99.8956C19.1773 99.8956 19.3689 99.9453 19.5042 100.094L19.5126 100.102L19.4126 100.237L19.4001 100.224C19.2856 100.111 19.1419 100.065 18.9837 100.065C18.8817 100.065 18.7755 100.086 18.6943 100.152C18.6214 100.212 18.5902 100.291 18.5902 100.384C18.5902 100.46 18.6131 100.526 18.661 100.586C18.7089 100.644 18.7692 100.686 18.8379 100.715C18.9171 100.746 18.9962 100.779 19.0774 100.812C19.1586 100.845 19.2377 100.88 19.3168 100.919C19.3939 100.959 19.4563 101.017 19.5063 101.089C19.5604 101.172 19.5833 101.265 19.5833 101.362C19.5833 101.515 19.523 101.639 19.4022 101.734C19.2731 101.836 19.1211 101.877 18.9566 101.877C18.8338 101.877 18.7151 101.85 18.6006 101.803C18.5027 101.757 18.409 101.691 18.3549 101.596L18.3507 101.587L18.459 101.463L18.4694 101.478C18.5256 101.55 18.6006 101.606 18.6839 101.645C18.7692 101.687 18.8588 101.71 18.9545 101.71C19.067 101.71 19.1732 101.683 19.2669 101.616C19.3543 101.556 19.396 101.472 19.396 101.366ZM12.3147 101.854H12.1356V99.9204H12.3147V101.854ZM12.5875 100.837L13.5452 101.854H13.312L12.3709 100.847L13.285 99.9204H13.5098L12.5875 100.835V100.837ZM6.85748 101.854H6.67842V99.9204H6.85748V101.854ZM0.788126 100.092H0.078125V99.9225H1.67719V100.092H0.967187V101.854H0.788126V100.092Z" stroke="white" stroke-width="0.3"/>
<path d="M67.4155 88.4394H69.3768V86.2718H67.4155C66.8803 86.2718 66.4993 86.3649 66.2765 86.551C66.0537 86.7372 65.9413 87.0019 65.9413 87.3494C65.9413 88.0754 66.4327 88.4394 67.4155 88.4394ZM70.9384 93.3536H69.3789V89.7838H68.6106L65.9538 93.3536H64.1507L66.795 89.7589C66.1037 89.6865 65.527 89.4549 65.0647 89.0619C64.6025 88.671 64.3693 88.1002 64.3693 87.3494C64.3693 86.9047 64.4547 86.5159 64.6254 86.1808C64.7962 85.8458 65.0252 85.5872 65.3146 85.4052C65.6019 85.2232 65.9101 85.0908 66.2349 85.006C66.5597 84.9212 66.9053 84.8799 67.2718 84.8799H70.9405V93.3536H70.9384ZM56.8383 93.3536H55.3267V84.8799H56.8862V90.7145H56.8987L61.2378 84.8799H62.7369V93.3536H61.1774V87.5066H61.165L56.8383 93.3536ZM46.103 93.3536H44.5435V84.8799H46.103L48.9055 89.4197H48.918L51.733 84.8799H53.28V93.3536H51.7205V87.7362H51.708L49.0637 92.0589H48.7597L46.1155 87.7362H46.103V93.3536ZM42.8007 93.3536H36.7085V84.8799H42.7403V86.2718H38.268V88.3897H42.5217V89.7817H38.268V91.9596H42.8007V93.3515V93.3536ZM29.3461 91.9741H32.6483V86.2966H29.8333V89.9285C29.8333 90.8158 29.6709 91.4984 29.3461 91.9741ZM28.5299 95.122H26.9704V91.9741H27.5909C28.0469 91.4342 28.2738 90.7724 28.2738 89.9885V84.8799H34.2079V91.9741H35.2198V95.122H33.6603V93.3557H28.5299V95.122ZM21.9505 87.0226L20.5367 90.2181H23.3996L21.9734 87.0226H21.9484H21.9505ZM19.2083 93.3536H17.4406L21.2301 84.8799H22.7042L26.4811 93.3536H24.7134L23.9451 91.5976H19.985L19.2062 93.3536H19.2083ZM11.7752 93.3536H10.2157V84.8799H11.7752V88.4146L15.0545 84.8799H17.1012L13.7011 88.5593L17.2345 93.3536H15.321L12.5789 89.6741L11.7752 90.5697V93.3536ZM4.62313 87.0226L3.20938 90.2181H6.07228L4.64604 87.0226H4.62105H4.62313ZM1.88099 93.3536H0.113281L3.90272 84.8799H5.37686L9.15381 93.3536H7.3861L6.6178 91.5976H2.65762L1.87891 93.3536H1.88099Z" fill="white"/>
<path d="M70.4975 79.0102L70.9035 79.763C70.46 80.2036 69.8791 80.549 69.1587 80.7992C68.4383 81.0495 67.6845 81.1756 66.8954 81.1756C64.9757 81.1756 63.4121 80.5759 62.2044 79.3783C61.0093 78.1911 60.4117 76.5965 60.4117 74.5903C60.4117 72.6937 60.9906 71.13 62.1482 69.8932C63.3059 68.6336 64.8383 68.0049 66.7455 68.0049C68.382 68.0049 69.6875 68.4082 70.6599 69.2148L70.1789 69.9677C69.3044 69.2955 68.1655 68.9584 66.7622 68.9584C65.186 68.9584 63.9118 69.4899 62.9394 70.5551C61.9671 71.5954 61.4798 72.9398 61.4798 74.5903C61.4798 76.2408 61.9858 77.6224 62.9935 78.6627C64.0034 79.703 65.3276 80.2222 66.9641 80.2222C68.3175 80.2222 69.4939 79.8189 70.4912 79.0122M58.1735 81.0123H50.8423V68.1703H57.9902V69.1238H51.8584V74.0215H57.4343V74.975H51.8584V80.0567H58.1735V81.0102V81.0123ZM46.7427 81.0123H45.7266V74.9398H37.6563V81.0123H36.6403V68.1703H37.6563V73.9863H45.7266V68.1703H46.7427V81.0123ZM28.9031 81.1777C28.0661 81.1777 27.2666 80.9936 26.5025 80.6276C25.7258 80.2491 25.1657 79.8023 24.8222 79.2873L25.3948 78.6089C25.8008 79.0867 26.3296 79.4735 26.9834 79.7734C27.6351 80.0733 28.2514 80.2222 28.8303 80.2222C29.8526 80.2222 30.6708 79.9616 31.2871 79.4424C31.9035 78.9233 32.2116 78.216 32.2116 77.3225C32.2116 76.5882 31.9659 76.005 31.4725 75.5706C30.979 75.1363 30.3086 74.9191 29.4591 74.9191H27.8517V73.9656H29.3466C29.9629 73.9656 30.5105 73.7216 30.9915 73.2314C31.4725 72.7412 31.7119 72.1311 31.7119 71.3969C31.7119 70.6275 31.4662 70.0277 30.9728 69.5995C30.4793 69.1714 29.8213 68.9584 28.9968 68.9584C27.7288 68.9584 26.6586 69.4485 25.7841 70.4268L25.1928 69.7857C25.6363 69.2355 26.1985 68.8012 26.8835 68.4827C27.5664 68.1641 28.2972 68.0049 29.0718 68.0049C30.192 68.0049 31.081 68.3006 31.7411 68.8942C32.399 69.4878 32.7301 70.2986 32.7301 71.3245C32.7301 71.9491 32.5552 72.5385 32.2033 73.0949C31.8535 73.6513 31.3746 74.0711 30.7729 74.3524V74.4083C31.5245 74.5179 32.12 74.8509 32.5635 75.4072C33.007 75.9636 33.2277 76.6337 33.2277 77.4155C33.2277 78.5779 32.8154 79.4941 31.9909 80.1684C31.1664 80.8406 30.1378 81.1777 28.9073 81.1777H28.9031ZM20.9432 69.8229L12.2442 81.0123H11.3384V68.1703H12.3545V79.3597L21.0515 68.1703H21.9572V81.0123H20.9411V69.8229H20.9432ZM3.23278 74.3173C2.44574 74.3173 1.7295 74.3545 1.09029 74.4269V80.0588C2.30832 80.096 2.98709 80.1146 3.12243 80.1146C4.36545 80.1146 5.30865 79.8582 5.94786 79.3432C6.58915 78.8302 6.90771 78.0898 6.90771 77.1239C6.90771 76.2304 6.59331 75.5396 5.96659 75.0515C5.3378 74.5613 4.42791 74.3173 3.23278 74.3173ZM0.0742188 81.0123V68.1703H7.20337V69.1238H1.09029V73.4713C1.84193 73.3989 2.56859 73.3617 3.27026 73.3617C4.75897 73.3617 5.90829 73.6864 6.71407 74.3338C7.51985 74.9812 7.92378 75.8933 7.92378 77.0681C7.92378 78.3525 7.49278 79.339 6.63079 80.0319C5.76879 80.7227 4.55076 81.0681 2.9746 81.0681C2.76639 81.0681 2.2292 81.0557 1.36721 81.0309C0.936213 81.0185 0.505216 81.0123 0.0742188 81.0123Z" fill="white"/>
<path fill-rule="evenodd" clip-rule="evenodd" d="M35.4848 0.0166016L53.1953 30.4864L70.9307 61.0017H56.0415L41.6104 36.0066C37.1942 28.3581 28.3182 24.7366 20.0605 26.5525L35.4848 0.0166016Z" fill="white"/>
<path fill-rule="evenodd" clip-rule="evenodd" d="M0.0761719 61.0039H14.9654C20.1269 52.0648 31.058 33.5848 31.0476 33.5972C26.7251 31.4234 21.6593 30.8423 16.8684 32.1205L0.0782528 61.0039H0.0761719Z" fill="white"/>
<path fill-rule="evenodd" clip-rule="evenodd" d="M21.0566 60.9914H50.1791L40.9783 45.4648H29.789L21.0566 60.9914Z" fill="white"/>
</g>
<defs>
<clipPath id="clip0_527_2019">
<rect width="71" height="103" fill="white"/>
</clipPath>
</defs>
</svg>
