<svg width="179" height="103" viewBox="0 0 179 103" fill="none" xmlns="http://www.w3.org/2000/svg">
<g clip-path="url(#clip0_568_2223)">
<path fill-rule="evenodd" clip-rule="evenodd" d="M66.2103 50.9582V55.2282C66.2103 59.5313 62.678 63.0515 58.3606 63.0515H12.7988C8.4815 63.0515 4.94922 59.5313 4.94922 55.2282V51.2558L12.4418 47.3668L20.8008 52.3111L33.987 38.1758L43.3003 48.1455L49.7774 41.3728L66.2104 50.9582H66.2103Z" fill="white"/>
<path fill-rule="evenodd" clip-rule="evenodd" d="M66.2102 48.552V49.9184L46.4437 30.2147L41.9656 38.992L33.2227 24.2525L19.3858 45.8249L15.1945 38.8786L4.94922 49.8599V48.3379L15.9131 34.9148L20.0695 40.3157L33.2534 20.1516L41.5856 32.0532L45.5171 25.5483L66.2102 48.552ZM12.7989 2H58.3607C62.6779 2 66.2102 5.52035 66.2102 9.82328V42.3599L45.5171 21.1753L41.5856 25.734L33.2534 16.5079L20.0695 33.9972L15.9131 31.0291L4.94922 42.3025V9.82328C4.94922 5.52035 8.48165 2 12.7988 2L12.7989 2Z" fill="white"/>
<path d="M10.7898 77.1901C10.7898 77.5666 10.6516 77.7549 10.3775 77.7549H6.48261V87.0227C6.48261 87.2236 6.14917 87.3238 5.48244 87.3238C4.84367 87.3238 4.52242 87.2236 4.52242 87.0227V77.7549H0.649778C0.33173 77.7549 0.174528 77.5477 0.174528 77.1305C0.174528 76.7075 0.33173 76.4944 0.649778 76.4944H10.3775C10.6516 76.4944 10.7898 76.7265 10.7898 77.1901ZM15.0281 86.8724C15.0281 87.1609 14.7005 87.3054 14.0496 87.3054C13.395 87.3054 13.0679 87.1609 13.0679 86.8724V76.9269C13.0679 76.5725 13.4299 76.3937 14.1501 76.3937C14.7354 76.3937 15.0281 76.5725 15.0281 76.9269V86.8724ZM29.507 86.7817C29.5477 86.816 29.5699 86.8534 29.5699 86.8914C29.5699 87.0201 29.4218 87.1203 29.1323 87.1925C28.9185 87.2458 28.7015 87.2737 28.4872 87.2737C27.8738 87.2737 27.3515 87.1108 26.9207 86.7817L21.2795 82.5299L19.7692 83.6052V86.932C19.7692 87.1609 19.4173 87.2737 18.7092 87.2737C18.108 87.2737 17.8096 87.1609 17.8096 86.932V76.9048C17.8096 76.6226 18.1493 76.4818 18.8288 76.4818C19.4548 76.4818 19.7692 76.6226 19.7692 76.908V81.7836L26.4958 76.996C26.9806 76.6543 27.5405 76.4818 28.1728 76.4818C28.3618 76.4818 28.5692 76.5066 28.7989 76.554C29.0979 76.6195 29.2455 76.7107 29.2455 76.8173C29.2455 76.8452 29.2238 76.8768 29.1762 76.9111L22.6543 81.5769L29.507 86.7817ZM42.8338 84.1511C42.8338 84.822 42.5538 85.4179 41.9939 85.9347C41.5282 86.3582 40.9365 86.6873 40.2163 86.9225C39.3575 87.2047 38.4038 87.346 37.3534 87.346C34.7169 87.346 32.8859 86.7817 31.8539 85.6526C31.4824 85.2422 31.2655 84.8219 31.2057 84.3921C31.1866 84.2386 31.3221 84.1194 31.6211 84.0414C31.8286 83.9786 32.0392 83.9501 32.2472 83.9501C32.7377 83.9501 33.0081 84.0566 33.0558 84.2734C33.2098 84.9443 33.8549 85.4427 34.9873 85.7628C35.7489 85.9727 36.5066 86.076 37.2619 86.076C38.8319 86.076 39.9205 85.7781 40.5275 85.1794C40.8048 84.9037 40.9429 84.5993 40.9429 84.2639C40.9429 83.5773 40.364 83.0757 39.2029 82.762C38.7377 82.6332 37.8127 82.4513 36.422 82.2166C35.217 82.0157 34.3078 81.7995 33.7035 81.5737C32.3006 81.0342 31.5989 80.2632 31.5989 79.2533C31.5989 78.6167 31.8661 78.0555 32.398 77.5729C32.8415 77.1811 33.4077 76.8831 34.0967 76.6759C34.9116 76.4349 35.8177 76.3125 36.8152 76.3125C39.1278 76.3125 40.745 76.8141 41.6605 77.8145C42.0315 78.2217 42.2204 78.6451 42.2267 79.0839C42.2267 79.3381 41.8616 79.4668 41.135 79.4668C40.6694 79.4668 40.4047 79.3724 40.3454 79.1846C40.002 78.0967 38.8542 77.5508 36.8972 77.5508C36.0002 77.5508 35.2546 77.6542 34.6635 77.8646C33.8797 78.1373 33.4897 78.5698 33.4897 79.153C33.4897 79.6989 33.9147 80.1123 34.764 80.404C35.1069 80.5169 35.8621 80.6677 37.029 80.8554C38.615 81.1191 39.7067 81.348 40.3042 81.5421C41.9907 82.1006 42.8338 82.9687 42.8338 84.1511ZM57.6867 87.0417C57.6931 87.0639 57.6963 87.0791 57.6963 87.095C57.6963 87.1735 57.5449 87.2394 57.2433 87.2864C57.0009 87.327 56.7776 87.346 56.576 87.346C55.9817 87.346 55.607 87.2458 55.453 87.0448L53.3891 83.0631H47.9998L46.0397 87.0043C45.9391 87.2047 45.5491 87.3054 44.8659 87.3054C44.1927 87.3054 43.8906 87.2047 43.9567 87.0043L49.3778 76.9269C49.5725 76.6447 49.9848 76.5034 50.6204 76.5034C51.3062 76.5034 51.7311 76.6447 51.8947 76.9269L57.6867 87.0417ZM52.826 81.9028L50.6394 78.1652L48.6195 81.9028H52.826ZM70.9855 86.8001C70.9855 87.0702 70.8124 87.2047 70.4696 87.2047C69.8213 87.2047 69.0476 86.7659 68.1442 85.8846L61.1885 79.1435V86.7316C61.1885 86.8945 61.0435 87.0227 60.754 87.1235C60.537 87.2047 60.3264 87.2458 60.1153 87.2458C59.5776 87.2458 59.3067 87.0734 59.3067 86.7316V76.8547C59.3067 76.5662 59.4987 76.4222 59.8824 76.4222C60.5116 76.4222 61.1535 76.7418 61.8082 77.3783L69.1042 84.5049V76.8547C69.1042 76.5256 69.4032 76.3626 70.0038 76.3626C70.6585 76.3626 70.9855 76.5256 70.9855 76.8547V86.8001ZM5.68411 93.4263C4.50502 93.4263 3.54931 93.6683 2.82272 94.1504C1.97335 94.7215 1.54733 95.568 1.54733 96.6923C1.54733 98.1532 2.22842 99.1241 3.58798 99.6062C4.25472 99.8487 4.9596 99.9685 5.70791 99.9685C6.25454 99.9685 6.82721 99.8968 7.42411 99.7528C8.07345 99.5946 8.60528 99.3836 9.01703 99.122V97.4339H5.68411C5.28724 97.4339 5.08981 97.2778 5.08981 96.9634C5.08981 96.6349 5.30151 96.4698 5.72486 96.4698H10.4945V100.686C10.4585 100.933 10.23 101.055 9.80601 101.055C9.3324 101.055 9.07734 100.933 9.04083 100.686V100.345C7.99403 100.741 6.91131 100.94 5.7926 100.94C4.767 100.94 3.83085 100.798 2.98624 100.515C1.96384 100.168 1.20073 99.6399 0.695362 98.9349C0.231267 98.2824 0 97.5557 0 96.7551C0 95.9013 0.247627 95.1361 0.743475 94.4573C1.22244 93.8002 1.86962 93.3161 2.68299 93.0017C3.54931 92.6684 4.54845 92.5007 5.67667 92.5007C7.39764 92.5007 8.65823 92.8624 9.45726 93.5871C9.64517 93.7569 9.79441 93.9299 9.90707 94.1023C9.93882 94.1504 9.95318 94.2057 9.95318 94.2727C9.95318 94.4383 9.8568 94.5702 9.66688 94.6735C9.50812 94.7621 9.33924 94.8054 9.1636 94.8054C8.94713 94.8054 8.7958 94.7426 8.70902 94.6208C8.13167 93.8244 7.12302 93.4263 5.68411 93.4263ZM25.1035 94.9899C25.1035 95.9588 24.622 96.6422 23.6573 97.0426C24.4971 97.4217 24.9178 97.9539 24.9178 98.64V100.676C24.9178 100.866 24.6776 100.962 24.1986 100.962C23.7245 100.962 23.4742 100.866 23.4477 100.676V98.6949C23.4477 98.5319 23.3493 98.3331 23.154 98.0979C22.8127 97.6855 22.2015 97.4792 21.3134 97.4792C21.3034 97.4792 21.2939 97.4792 21.2817 97.4792C21.2722 97.4792 21.2674 97.4792 21.2674 97.4792C21.133 97.4792 20.9954 97.4792 20.8562 97.4792H18.4135V100.676C18.4135 100.866 18.1584 100.962 17.6482 100.962C17.1598 100.962 16.9142 100.866 16.9142 100.676V92.6394H20.726C21.4574 92.6394 22.0326 92.6658 22.4513 92.7164C23.5583 92.8556 24.3309 93.2438 24.7639 93.884C24.9903 94.2179 25.1035 94.587 25.1035 94.9899ZM23.5562 95.0353C23.5562 94.6756 23.4239 94.3714 23.1614 94.1192C22.9254 93.894 22.6201 93.7453 22.2491 93.673C22.0014 93.6277 21.5347 93.6034 20.8488 93.6034H18.4135V96.5152H20.8801C22.6634 96.5152 23.5562 96.021 23.5562 95.0353ZM42.0824 96.7309C42.0824 97.5894 41.8374 98.3452 41.3484 98.997C40.8795 99.6304 40.2344 100.108 39.4136 100.432C38.5642 100.77 37.645 100.94 36.6607 100.94C35.6912 100.94 34.808 100.784 34.009 100.47C33.0754 100.11 32.3679 99.5751 31.889 98.8679C31.4556 98.225 31.2391 97.5441 31.2391 96.8248C31.2391 95.3713 31.7974 94.2606 32.9166 93.4958C33.8862 92.8266 35.1377 92.4933 36.6682 92.4933C37.6329 92.4933 38.5114 92.6446 39.3056 92.949C40.2297 93.2965 40.9298 93.8218 41.4087 94.5201C41.8585 95.1772 42.0824 95.9155 42.0824 96.7309ZM40.535 96.724C40.535 95.347 39.9237 94.3808 38.7013 93.8265C38.1049 93.5608 37.4286 93.4263 36.675 93.4263C35.4912 93.4263 34.5598 93.6994 33.884 94.2443C33.1521 94.8339 32.7864 95.6998 32.7864 96.839C32.7864 97.8822 33.1812 98.688 33.9703 99.2586C34.6709 99.7623 35.5658 100.014 36.6539 100.014C37.7869 100.014 38.6992 99.7528 39.3898 99.2275C40.1524 98.6469 40.535 97.8126 40.535 96.724ZM57.1725 97.3569C57.1725 98.1052 57.074 98.6949 56.8793 99.122C56.3231 100.333 54.9419 100.94 52.7425 100.94C50.6342 100.94 49.2821 100.427 48.6899 99.3979C48.401 98.8942 48.2571 98.2128 48.2571 97.3569V93.026C48.2063 92.7428 48.4375 92.6014 48.9524 92.6014C49.489 92.6014 49.7563 92.7428 49.7563 93.026V97.3474C49.7563 97.9444 49.8113 98.3832 49.9198 98.6664C50.2495 99.5345 51.147 99.9685 52.6102 99.9685C53.8279 99.9685 54.6603 99.7454 55.1081 99.2972C55.4859 98.9227 55.6732 98.2729 55.6732 97.3474V93.0233C55.6732 92.757 55.9383 92.6231 56.4702 92.6231C56.9391 92.6231 57.1725 92.757 57.1725 93.0233V97.3569ZM72.0001 94.9968C72.0001 96.6517 70.585 97.4792 67.7554 97.4792H65.3872V100.525C65.3464 100.772 65.1369 100.894 64.7617 100.894C64.5955 100.894 64.415 100.861 64.2203 100.793C63.9769 100.717 63.8663 100.628 63.888 100.525V92.6394H67.623C68.3544 92.6394 68.9297 92.6658 69.3483 92.7164C70.4554 92.8556 71.2275 93.2464 71.6608 93.8893C71.8868 94.2226 72.0001 94.5918 72.0001 94.9968ZM70.4527 95.0353C70.4527 94.6756 70.3204 94.3714 70.0579 94.1192C69.8224 93.894 69.5165 93.7453 69.1461 93.673C68.8984 93.6277 68.4311 93.6034 67.7453 93.6034H65.3872V96.5152H67.777C69.56 96.5152 70.4527 96.021 70.4527 95.0353Z" fill="white"/>
</g>
<path d="M90 4.5L90 98.5" stroke="white" stroke-linecap="round"/>
<g clip-path="url(#clip1_568_2223)">
<path fill-rule="evenodd" clip-rule="evenodd" d="M177.904 100.09V100.917C178.002 100.924 178.102 100.93 178.202 100.93C178.337 100.93 178.478 100.905 178.583 100.814C178.676 100.731 178.716 100.624 178.716 100.502C178.716 100.38 178.683 100.276 178.593 100.198C178.493 100.109 178.349 100.086 178.22 100.086C178.114 100.086 178.008 100.088 177.904 100.092M164.216 100.888C164.216 101.112 164.285 101.312 164.441 101.474C164.593 101.633 164.782 101.71 165.003 101.71C165.224 101.71 165.415 101.637 165.567 101.474C165.721 101.31 165.79 101.112 165.79 100.888C165.79 100.665 165.721 100.464 165.561 100.303C165.407 100.146 165.222 100.067 165.001 100.067C164.78 100.067 164.593 100.144 164.439 100.303C164.281 100.466 164.214 100.665 164.214 100.888H164.216ZM158.074 100.092V100.886H158.39C158.513 100.886 158.626 100.849 158.721 100.773C158.817 100.698 158.867 100.603 158.867 100.481C158.867 100.173 158.638 100.088 158.361 100.088C158.265 100.088 158.17 100.09 158.074 100.094V100.092ZM133.676 101.037L133.301 100.162L132.922 101.037H133.676ZM177.904 101.091V101.854H177.725V99.9204H177.739C177.816 99.9204 177.893 99.9204 177.973 99.9184C178.052 99.9184 178.129 99.9163 178.208 99.9163C178.32 99.9163 178.437 99.9287 178.543 99.966C178.624 99.9949 178.703 100.038 178.762 100.102C178.81 100.158 178.847 100.218 178.872 100.289C178.895 100.359 178.905 100.431 178.905 100.504C178.905 100.669 178.849 100.812 178.728 100.928C178.589 101.062 178.397 101.101 178.21 101.101C178.11 101.101 178.008 101.101 177.906 101.091H177.904ZM172.361 99.9204H172.54V101.041C172.54 101.265 172.494 101.503 172.33 101.666C172.184 101.811 172.003 101.875 171.799 101.875C171.58 101.875 171.381 101.813 171.224 101.656C171.056 101.488 171.006 101.252 171.006 101.023V99.9204H171.185V100.996C171.185 101.182 171.222 101.374 171.349 101.519C171.466 101.652 171.62 101.705 171.797 101.705C171.959 101.705 172.103 101.654 172.207 101.527C172.326 101.387 172.357 101.188 172.357 101.008V99.9184L172.361 99.9204ZM164.029 100.886C164.029 100.615 164.116 100.375 164.306 100.179C164.495 99.9846 164.73 99.8936 165.003 99.8936C165.276 99.8936 165.507 99.9846 165.698 100.175C165.892 100.369 165.98 100.611 165.98 100.884C165.98 101.157 165.892 101.397 165.698 101.594C165.509 101.786 165.274 101.875 165.003 101.875C164.732 101.875 164.497 101.788 164.306 101.596C164.11 101.401 164.027 101.157 164.027 100.884L164.029 100.886ZM158.074 101.054V101.854H157.895V99.9204H157.909C157.993 99.9204 158.076 99.9204 158.159 99.9184C158.23 99.9184 158.299 99.9163 158.369 99.9163C158.757 99.9163 159.054 100.053 159.054 100.479C159.054 100.613 159.011 100.733 158.921 100.835C158.838 100.93 158.732 100.99 158.611 101.019L159.286 101.854H159.063L158.424 101.054H158.072H158.074ZM152.639 101.072H152.079V100.903H152.812V101.608L152.808 101.612C152.714 101.703 152.6 101.765 152.477 101.809C152.35 101.854 152.217 101.877 152.081 101.877C151.813 101.877 151.569 101.801 151.382 101.606C151.19 101.41 151.117 101.155 151.117 100.886C151.117 100.617 151.194 100.378 151.38 100.181C151.563 99.9846 151.794 99.8956 152.065 99.8956C152.281 99.8956 152.492 99.9432 152.664 100.078L152.675 100.086L152.592 100.229L152.579 100.218C152.44 100.102 152.258 100.067 152.081 100.067C151.863 100.067 151.673 100.138 151.523 100.297C151.369 100.462 151.309 100.665 151.309 100.888C151.309 101.112 151.367 101.321 151.523 101.484C151.675 101.643 151.871 101.707 152.09 101.707C152.196 101.707 152.302 101.687 152.402 101.654C152.49 101.625 152.577 101.581 152.644 101.517V101.072H152.639ZM139.351 100.243V101.854H139.181V99.9204H139.322L140.613 101.536V99.9204H140.784V101.854H140.642L139.351 100.243ZM133.751 101.207H132.849L132.57 101.854H132.385L133.232 99.9039H133.374L134.221 101.854H134.027L133.748 101.207H133.751ZM127.396 101.366C127.396 101.29 127.373 101.219 127.325 101.159C127.277 101.101 127.217 101.058 127.146 101.027C127.067 100.994 126.988 100.959 126.909 100.926C126.828 100.89 126.748 100.853 126.669 100.816C126.592 100.777 126.53 100.721 126.48 100.651C126.426 100.572 126.403 100.483 126.403 100.388C126.403 100.247 126.453 100.131 126.559 100.036C126.676 99.9329 126.825 99.8956 126.98 99.8956C127.177 99.8956 127.369 99.9453 127.504 100.094L127.513 100.102L127.413 100.237L127.4 100.224C127.286 100.111 127.142 100.065 126.984 100.065C126.882 100.065 126.775 100.086 126.694 100.152C126.621 100.212 126.59 100.291 126.59 100.384C126.59 100.46 126.613 100.526 126.661 100.586C126.709 100.644 126.769 100.686 126.838 100.715C126.917 100.746 126.996 100.779 127.077 100.812C127.159 100.845 127.238 100.88 127.317 100.919C127.394 100.959 127.456 101.017 127.506 101.089C127.56 101.172 127.583 101.265 127.583 101.362C127.583 101.515 127.523 101.639 127.402 101.734C127.273 101.836 127.121 101.877 126.957 101.877C126.834 101.877 126.715 101.85 126.601 101.803C126.503 101.757 126.409 101.691 126.355 101.596L126.351 101.587L126.459 101.463L126.469 101.478C126.526 101.55 126.601 101.606 126.684 101.645C126.769 101.687 126.859 101.71 126.955 101.71C127.067 101.71 127.173 101.683 127.267 101.616C127.354 101.556 127.396 101.472 127.396 101.366ZM120.315 101.854H120.136V99.9204H120.315V101.854ZM120.587 100.837L121.545 101.854H121.312L120.371 100.847L121.285 99.9204H121.51L120.587 100.835V100.837ZM114.857 101.854H114.678V99.9204H114.857V101.854ZM108.788 100.092H108.078V99.9225H109.677V100.092H108.967V101.854H108.788V100.092Z" fill="white"/>
<path d="M177.904 100.09V100.917C178.002 100.924 178.102 100.93 178.202 100.93C178.337 100.93 178.478 100.905 178.583 100.814C178.676 100.731 178.716 100.624 178.716 100.502C178.716 100.38 178.683 100.276 178.593 100.198C178.493 100.109 178.349 100.086 178.22 100.086C178.114 100.086 178.008 100.088 177.904 100.092M164.216 100.888C164.216 101.112 164.285 101.312 164.441 101.474C164.593 101.633 164.782 101.71 165.003 101.71C165.224 101.71 165.415 101.637 165.567 101.474C165.721 101.31 165.79 101.112 165.79 100.888C165.79 100.665 165.721 100.464 165.561 100.303C165.407 100.146 165.222 100.067 165.001 100.067C164.78 100.067 164.593 100.144 164.439 100.303C164.281 100.466 164.214 100.665 164.214 100.888H164.216ZM158.074 100.092V100.886H158.39C158.513 100.886 158.626 100.849 158.721 100.773C158.817 100.698 158.867 100.603 158.867 100.481C158.867 100.173 158.638 100.088 158.361 100.088C158.265 100.088 158.17 100.09 158.074 100.094V100.092ZM133.676 101.037L133.301 100.162L132.922 101.037H133.676ZM177.904 101.091V101.854H177.725V99.9204H177.739C177.816 99.9204 177.893 99.9204 177.973 99.9184C178.052 99.9184 178.129 99.9163 178.208 99.9163C178.32 99.9163 178.437 99.9287 178.543 99.966C178.624 99.9949 178.703 100.038 178.762 100.102C178.81 100.158 178.847 100.218 178.872 100.289C178.895 100.359 178.905 100.431 178.905 100.504C178.905 100.669 178.849 100.812 178.728 100.928C178.589 101.062 178.397 101.101 178.21 101.101C178.11 101.101 178.008 101.101 177.906 101.091H177.904ZM172.361 99.9204H172.54V101.041C172.54 101.265 172.494 101.503 172.33 101.666C172.184 101.811 172.003 101.875 171.799 101.875C171.58 101.875 171.381 101.813 171.224 101.656C171.056 101.488 171.006 101.252 171.006 101.023V99.9204H171.185V100.996C171.185 101.182 171.222 101.374 171.349 101.519C171.466 101.652 171.62 101.705 171.797 101.705C171.959 101.705 172.103 101.654 172.207 101.527C172.326 101.387 172.357 101.188 172.357 101.008V99.9184L172.361 99.9204ZM164.029 100.886C164.029 100.615 164.116 100.375 164.306 100.179C164.495 99.9846 164.73 99.8936 165.003 99.8936C165.276 99.8936 165.507 99.9846 165.698 100.175C165.892 100.369 165.98 100.611 165.98 100.884C165.98 101.157 165.892 101.397 165.698 101.594C165.509 101.786 165.274 101.875 165.003 101.875C164.732 101.875 164.497 101.788 164.306 101.596C164.11 101.401 164.027 101.157 164.027 100.884L164.029 100.886ZM158.074 101.054V101.854H157.895V99.9204H157.909C157.993 99.9204 158.076 99.9204 158.159 99.9184C158.23 99.9184 158.299 99.9163 158.369 99.9163C158.757 99.9163 159.054 100.053 159.054 100.479C159.054 100.613 159.011 100.733 158.921 100.835C158.838 100.93 158.732 100.99 158.611 101.019L159.286 101.854H159.063L158.424 101.054H158.072H158.074ZM152.639 101.072H152.079V100.903H152.812V101.608L152.808 101.612C152.714 101.703 152.6 101.765 152.477 101.809C152.35 101.854 152.217 101.877 152.081 101.877C151.813 101.877 151.569 101.801 151.382 101.606C151.19 101.41 151.117 101.155 151.117 100.886C151.117 100.617 151.194 100.378 151.38 100.181C151.563 99.9846 151.794 99.8956 152.065 99.8956C152.281 99.8956 152.492 99.9432 152.664 100.078L152.675 100.086L152.592 100.229L152.579 100.218C152.44 100.102 152.258 100.067 152.081 100.067C151.863 100.067 151.673 100.138 151.523 100.297C151.369 100.462 151.309 100.665 151.309 100.888C151.309 101.112 151.367 101.321 151.523 101.484C151.675 101.643 151.871 101.707 152.09 101.707C152.196 101.707 152.302 101.687 152.402 101.654C152.49 101.625 152.577 101.581 152.644 101.517V101.072H152.639ZM139.351 100.243V101.854H139.181V99.9204H139.322L140.613 101.536V99.9204H140.784V101.854H140.642L139.351 100.243ZM133.751 101.207H132.849L132.57 101.854H132.385L133.232 99.9039H133.374L134.221 101.854H134.027L133.748 101.207H133.751ZM127.396 101.366C127.396 101.29 127.373 101.219 127.325 101.159C127.277 101.101 127.217 101.058 127.146 101.027C127.067 100.994 126.988 100.959 126.909 100.926C126.828 100.89 126.748 100.853 126.669 100.816C126.592 100.777 126.53 100.721 126.48 100.651C126.426 100.572 126.403 100.483 126.403 100.388C126.403 100.247 126.453 100.131 126.559 100.036C126.676 99.9329 126.825 99.8956 126.98 99.8956C127.177 99.8956 127.369 99.9453 127.504 100.094L127.513 100.102L127.413 100.237L127.4 100.224C127.286 100.111 127.142 100.065 126.984 100.065C126.882 100.065 126.775 100.086 126.694 100.152C126.621 100.212 126.59 100.291 126.59 100.384C126.59 100.46 126.613 100.526 126.661 100.586C126.709 100.644 126.769 100.686 126.838 100.715C126.917 100.746 126.996 100.779 127.077 100.812C127.159 100.845 127.238 100.88 127.317 100.919C127.394 100.959 127.456 101.017 127.506 101.089C127.56 101.172 127.583 101.265 127.583 101.362C127.583 101.515 127.523 101.639 127.402 101.734C127.273 101.836 127.121 101.877 126.957 101.877C126.834 101.877 126.715 101.85 126.601 101.803C126.503 101.757 126.409 101.691 126.355 101.596L126.351 101.587L126.459 101.463L126.469 101.478C126.526 101.55 126.601 101.606 126.684 101.645C126.769 101.687 126.859 101.71 126.955 101.71C127.067 101.71 127.173 101.683 127.267 101.616C127.354 101.556 127.396 101.472 127.396 101.366ZM120.315 101.854H120.136V99.9204H120.315V101.854ZM120.587 100.837L121.545 101.854H121.312L120.371 100.847L121.285 99.9204H121.51L120.587 100.835V100.837ZM114.857 101.854H114.678V99.9204H114.857V101.854ZM108.788 100.092H108.078V99.9225H109.677V100.092H108.967V101.854H108.788V100.092Z" stroke="white" stroke-width="0.3"/>
<path d="M175.415 88.4394H177.377V86.2718H175.415C174.88 86.2718 174.499 86.3649 174.277 86.551C174.054 86.7372 173.941 87.0019 173.941 87.3494C173.941 88.0754 174.433 88.4394 175.415 88.4394ZM178.938 93.3536H177.379V89.7838H176.611L173.954 93.3536H172.151L174.795 89.7589C174.104 89.6865 173.527 89.4549 173.065 89.0619C172.603 88.671 172.369 88.1002 172.369 87.3494C172.369 86.9047 172.455 86.5159 172.625 86.1808C172.796 85.8458 173.025 85.5872 173.315 85.4052C173.602 85.2232 173.91 85.0908 174.235 85.006C174.56 84.9212 174.905 84.8799 175.272 84.8799H178.94V93.3536H178.938ZM164.838 93.3536H163.327V84.8799H164.886V90.7145H164.899L169.238 84.8799H170.737V93.3536H169.177V87.5066H169.165L164.838 93.3536ZM154.103 93.3536H152.543V84.8799H154.103L156.905 89.4197H156.918L159.733 84.8799H161.28V93.3536H159.72V87.7362H159.708L157.064 92.0589H156.76L154.115 87.7362H154.103V93.3536ZM150.801 93.3536H144.708V84.8799H150.74V86.2718H146.268V88.3897H150.522V89.7817H146.268V91.9596H150.801V93.3515V93.3536ZM137.346 91.9741H140.648V86.2966H137.833V89.9285C137.833 90.8158 137.671 91.4984 137.346 91.9741ZM136.53 95.122H134.97V91.9741H135.591C136.047 91.4342 136.274 90.7724 136.274 89.9885V84.8799H142.208V91.9741H143.22V95.122H141.66V93.3557H136.53V95.122ZM129.95 87.0226L128.537 90.2181H131.4L129.973 87.0226H129.948H129.95ZM127.208 93.3536H125.441L129.23 84.8799H130.704L134.481 93.3536H132.713L131.945 91.5976H127.985L127.206 93.3536H127.208ZM119.775 93.3536H118.216V84.8799H119.775V88.4146L123.055 84.8799H125.101L121.701 88.5593L125.234 93.3536H123.321L120.579 89.6741L119.775 90.5697V93.3536ZM112.623 87.0226L111.209 90.2181H114.072L112.646 87.0226H112.621H112.623ZM109.881 93.3536H108.113L111.903 84.8799H113.377L117.154 93.3536H115.386L114.618 91.5976H110.658L109.879 93.3536H109.881Z" fill="white"/>
<path d="M178.497 79.0102L178.903 79.763C178.46 80.2036 177.879 80.549 177.159 80.7992C176.438 81.0495 175.685 81.1756 174.895 81.1756C172.976 81.1756 171.412 80.5759 170.204 79.3783C169.009 78.1911 168.412 76.5965 168.412 74.5903C168.412 72.6937 168.991 71.13 170.148 69.8932C171.306 68.6336 172.838 68.0049 174.746 68.0049C176.382 68.0049 177.688 68.4082 178.66 69.2148L178.179 69.9677C177.304 69.2955 176.166 68.9584 174.762 68.9584C173.186 68.9584 171.912 69.4899 170.939 70.5551C169.967 71.5954 169.48 72.9398 169.48 74.5903C169.48 76.2408 169.986 77.6224 170.994 78.6627C172.003 79.703 173.328 80.2222 174.964 80.2222C176.318 80.2222 177.494 79.8189 178.491 79.0122M166.173 81.0123H158.842V68.1703H165.99V69.1238H159.858V74.0215H165.434V74.975H159.858V80.0567H166.173V81.0102V81.0123ZM154.743 81.0123H153.727V74.9398H145.656V81.0123H144.64V68.1703H145.656V73.9863H153.727V68.1703H154.743V81.0123ZM136.903 81.1777C136.066 81.1777 135.267 80.9936 134.502 80.6276C133.726 80.2491 133.166 79.8023 132.822 79.2873L133.395 78.6089C133.801 79.0867 134.33 79.4735 134.983 79.7734C135.635 80.0733 136.251 80.2222 136.83 80.2222C137.853 80.2222 138.671 79.9616 139.287 79.4424C139.903 78.9233 140.212 78.216 140.212 77.3225C140.212 76.5882 139.966 76.005 139.472 75.5706C138.979 75.1363 138.309 74.9191 137.459 74.9191H135.852V73.9656H137.347C137.963 73.9656 138.511 73.7216 138.991 73.2314C139.472 72.7412 139.712 72.1311 139.712 71.3969C139.712 70.6275 139.466 70.0277 138.973 69.5995C138.479 69.1714 137.821 68.9584 136.997 68.9584C135.729 68.9584 134.659 69.4485 133.784 70.4268L133.193 69.7857C133.636 69.2355 134.198 68.8012 134.883 68.4827C135.566 68.1641 136.297 68.0049 137.072 68.0049C138.192 68.0049 139.081 68.3006 139.741 68.8942C140.399 69.4878 140.73 70.2986 140.73 71.3245C140.73 71.9491 140.555 72.5385 140.203 73.0949C139.853 73.6513 139.375 74.0711 138.773 74.3524V74.4083C139.525 74.5179 140.12 74.8509 140.563 75.4072C141.007 75.9636 141.228 76.6337 141.228 77.4155C141.228 78.5779 140.815 79.4941 139.991 80.1684C139.166 80.8406 138.138 81.1777 136.907 81.1777H136.903ZM128.943 69.8229L120.244 81.0123H119.338V68.1703H120.355V79.3597L129.051 68.1703H129.957V81.0123H128.941V69.8229H128.943ZM111.233 74.3173C110.446 74.3173 109.729 74.3545 109.09 74.4269V80.0588C110.308 80.096 110.987 80.1146 111.122 80.1146C112.365 80.1146 113.309 79.8582 113.948 79.3432C114.589 78.8302 114.908 78.0898 114.908 77.1239C114.908 76.2304 114.593 75.5396 113.967 75.0515C113.338 74.5613 112.428 74.3173 111.233 74.3173ZM108.074 81.0123V68.1703H115.203V69.1238H109.09V73.4713C109.842 73.3989 110.569 73.3617 111.27 73.3617C112.759 73.3617 113.908 73.6864 114.714 74.3338C115.52 74.9812 115.924 75.8933 115.924 77.0681C115.924 78.3525 115.493 79.339 114.631 80.0319C113.769 80.7227 112.551 81.0681 110.975 81.0681C110.766 81.0681 110.229 81.0557 109.367 81.0309C108.936 81.0185 108.505 81.0123 108.074 81.0123Z" fill="white"/>
<path fill-rule="evenodd" clip-rule="evenodd" d="M143.485 0.0166016L161.195 30.4864L178.931 61.0017H164.042L149.61 36.0066C145.194 28.3581 136.318 24.7366 128.061 26.5525L143.485 0.0166016Z" fill="white"/>
<path fill-rule="evenodd" clip-rule="evenodd" d="M108.076 61.0039H122.965C128.127 52.0648 139.058 33.5848 139.048 33.5972C134.725 31.4234 129.659 30.8423 124.868 32.1205L108.078 61.0039H108.076Z" fill="white"/>
<path fill-rule="evenodd" clip-rule="evenodd" d="M129.057 60.9914H158.179L148.978 45.4648H137.789L129.057 60.9914Z" fill="white"/>
</g>
<defs>
<clipPath id="clip0_568_2223">
<rect width="72" height="99" fill="white" transform="translate(0 2)"/>
</clipPath>
<clipPath id="clip1_568_2223">
<rect width="71" height="103" fill="white" transform="translate(108)"/>
</clipPath>
</defs>
</svg>
