<svg width="36" height="36" viewBox="0 0 36 36" fill="none" xmlns="http://www.w3.org/2000/svg">
<path d="M19.3076 22.9796L19.3086 22.9785L25.5485 16.7026C25.9262 16.3461 26.096 15.8691 26.096 15.408C26.096 14.9261 25.9246 14.4535 25.5536 14.0824L25.5536 14.0824L25.5475 14.0765C24.817 13.3704 23.6562 13.3609 22.9353 14.1036L18 19.0557L13.0646 14.1035C12.3468 13.3642 11.1638 13.3651 10.4464 14.0824C9.7158 14.8131 9.70582 15.9777 10.4487 16.6998L16.6914 22.9785L16.6924 22.9796C17.0371 23.3243 17.5059 23.522 18 23.522C18.4941 23.522 18.9629 23.3243 19.3076 22.9796ZM18 35.5C8.34164 35.5 0.501903 27.6441 0.499998 18.0035C0.499998 18.0023 0.499998 18.0012 0.499998 18L0.506728 17.5102C0.506762 17.509 0.506792 17.5078 0.506827 17.5065C0.768259 8.07468 8.50518 0.500002 18 0.500002C27.6422 0.500001 35.5 8.34047 35.5 18C35.5 27.6419 27.6419 35.5 18 35.5Z" stroke="url(#paint0_linear_6_279)"/>
<defs>
<linearGradient id="paint0_linear_6_279" x1="36" y1="18" x2="-1.57361e-06" y2="18" gradientUnits="userSpaceOnUse">
<stop stop-color="#BE3900"/>
<stop offset="0.9999" stop-color="#FFB671"/>
<stop offset="1" stop-color="#F68D65"/>
</linearGradient>
</defs>
</svg>
