<svg width="36" height="36" viewBox="0 0 36 36" fill="none" xmlns="http://www.w3.org/2000/svg">
<path d="M18 36C8.082 36 -7.04977e-07 27.936 -1.57361e-06 18C-2.44067e-06 8.082 8.082 2.44067e-06 18 1.57361e-06C27.936 7.04977e-07 36 8.082 36 18C36 27.936 27.936 36 18 36ZM23.292 21.546C23.814 22.086 24.678 22.086 25.2 21.564C25.74 21.024 25.74 20.178 25.2 19.656L18.954 13.374C18.702 13.122 18.36 12.978 18 12.978C17.64 12.978 17.298 13.122 17.046 13.374L10.8 19.656C10.53 19.908 10.404 20.25 10.404 20.592C10.404 20.952 10.53 21.294 10.8 21.564C11.34 22.086 12.186 22.086 12.708 21.546L18 16.236L23.292 21.546Z" fill="url(#paint0_linear_6_282)"/>
<defs>
<linearGradient id="paint0_linear_6_282" x1="36" y1="18" x2="-1.57361e-06" y2="18" gradientUnits="userSpaceOnUse">
<stop stop-color="#BE3900"/>
<stop offset="0.9999" stop-color="#FFB671"/>
<stop offset="1" stop-color="#F68D65"/>
</linearGradient>
</defs>
</svg>
