<svg width="36" height="36" viewBox="0 0 36 36" fill="none" xmlns="http://www.w3.org/2000/svg">
<path d="M16.6924 13.0204L16.6914 13.0215L10.4515 19.2974C10.0738 19.6539 9.904 20.1309 9.904 20.592C9.904 21.0739 10.0754 21.5465 10.4464 21.9176L10.4464 21.9176L10.4525 21.9235C11.183 22.6296 12.3438 22.6391 13.0647 21.8964L18 16.9443L22.9354 21.8965C23.6532 22.6358 24.8362 22.6349 25.5536 21.9176C26.2842 21.1869 26.2942 20.0223 25.5513 19.3002L19.3086 13.0215L19.3076 13.0204C18.9629 12.6757 18.4941 12.478 18 12.478C17.5059 12.478 17.0371 12.6757 16.6924 13.0204ZM18 0.5C27.6584 0.5 35.4981 8.35591 35.5 17.9965C35.5 17.9977 35.5 17.9988 35.5 18L35.4933 18.4898C35.4932 18.491 35.4932 18.4922 35.4932 18.4935C35.2317 27.9253 27.4948 35.5 18 35.5C8.35782 35.5 0.5 27.6595 0.5 18C0.5 8.35814 8.35814 0.5 18 0.5Z" stroke="url(#paint0_linear_246_2188)"/>
<defs>
<linearGradient id="paint0_linear_246_2188" x1="18" y1="0" x2="18" y2="36" gradientUnits="userSpaceOnUse">
<stop stop-color="#FD7F43"/>
<stop offset="1" stop-color="#842B03"/>
</linearGradient>
</defs>
</svg>
