<svg width="36" height="36" viewBox="0 0 36 36" fill="none" xmlns="http://www.w3.org/2000/svg">
<path d="M18 0C27.918 0 36 8.064 36 18C36 27.918 27.918 36 18 36C8.064 36 0 27.918 0 18C0 8.064 8.064 0 18 0ZM12.708 14.454C12.186 13.914 11.322 13.914 10.8 14.436C10.26 14.976 10.26 15.822 10.8 16.344L17.046 22.626C17.298 22.878 17.64 23.022 18 23.022C18.36 23.022 18.702 22.878 18.954 22.626L25.2 16.344C25.47 16.092 25.596 15.75 25.596 15.408C25.596 15.048 25.47 14.706 25.2 14.436C24.66 13.914 23.814 13.914 23.292 14.454L18 19.764L12.708 14.454Z" fill="url(#paint0_linear_246_2192)"/>
<defs>
<linearGradient id="paint0_linear_246_2192" x1="18" y1="0" x2="18" y2="36" gradientUnits="userSpaceOnUse">
<stop stop-color="#FD7F43"/>
<stop offset="1" stop-color="#842B03"/>
</linearGradient>
</defs>
</svg>
