<svg width="72" height="99" viewBox="0 0 72 99" fill="none" xmlns="http://www.w3.org/2000/svg">
<g clip-path="url(#clip0_527_2026)">
<path fill-rule="evenodd" clip-rule="evenodd" d="M66.2103 48.9582V53.2282C66.2103 57.5313 62.678 61.0515 58.3606 61.0515H12.7988C8.4815 61.0515 4.94922 57.5313 4.94922 53.2282V49.2558L12.4418 45.3668L20.8008 50.3111L33.987 36.1758L43.3003 46.1455L49.7774 39.3728L66.2104 48.9582H66.2103Z" fill="white"/>
<path fill-rule="evenodd" clip-rule="evenodd" d="M66.2102 46.552V47.9184L46.4437 28.2147L41.9656 36.992L33.2227 22.2525L19.3858 43.8249L15.1945 36.8786L4.94922 47.8599V46.3379L15.9131 32.9148L20.0695 38.3157L33.2534 18.1516L41.5856 30.0532L45.5171 23.5483L66.2102 46.552ZM12.7989 0H58.3607C62.6779 0 66.2102 3.52035 66.2102 7.82328V40.3599L45.5171 19.1753L41.5856 23.734L33.2534 14.5079L20.0695 31.9972L15.9131 29.0291L4.94922 40.3025V7.82328C4.94922 3.52035 8.48165 0 12.7988 0L12.7989 0Z" fill="white"/>
<path d="M10.7898 75.1901C10.7898 75.5666 10.6516 75.7549 10.3775 75.7549H6.48261V85.0227C6.48261 85.2236 6.14917 85.3238 5.48244 85.3238C4.84367 85.3238 4.52242 85.2236 4.52242 85.0227V75.7549H0.649778C0.33173 75.7549 0.174528 75.5477 0.174528 75.1305C0.174528 74.7075 0.33173 74.4944 0.649778 74.4944H10.3775C10.6516 74.4944 10.7898 74.7265 10.7898 75.1901ZM15.0281 84.8724C15.0281 85.1609 14.7005 85.3054 14.0496 85.3054C13.395 85.3054 13.0679 85.1609 13.0679 84.8724V74.9269C13.0679 74.5725 13.4299 74.3937 14.1501 74.3937C14.7354 74.3937 15.0281 74.5725 15.0281 74.9269V84.8724ZM29.507 84.7817C29.5477 84.816 29.5699 84.8534 29.5699 84.8914C29.5699 85.0201 29.4218 85.1203 29.1323 85.1925C28.9185 85.2458 28.7015 85.2737 28.4872 85.2737C27.8738 85.2737 27.3515 85.1108 26.9207 84.7817L21.2795 80.5299L19.7692 81.6052V84.932C19.7692 85.1609 19.4173 85.2737 18.7092 85.2737C18.108 85.2737 17.8096 85.1609 17.8096 84.932V74.9048C17.8096 74.6226 18.1493 74.4818 18.8288 74.4818C19.4548 74.4818 19.7692 74.6226 19.7692 74.908V79.7836L26.4958 74.996C26.9806 74.6543 27.5405 74.4818 28.1728 74.4818C28.3618 74.4818 28.5692 74.5066 28.7989 74.554C29.0979 74.6195 29.2455 74.7107 29.2455 74.8173C29.2455 74.8452 29.2238 74.8768 29.1762 74.9111L22.6543 79.5769L29.507 84.7817ZM42.8338 82.1511C42.8338 82.822 42.5538 83.4179 41.9939 83.9347C41.5282 84.3582 40.9365 84.6873 40.2163 84.9225C39.3575 85.2047 38.4038 85.346 37.3534 85.346C34.7169 85.346 32.8859 84.7817 31.8539 83.6526C31.4824 83.2422 31.2655 82.8219 31.2057 82.3921C31.1866 82.2386 31.3221 82.1194 31.6211 82.0414C31.8286 81.9786 32.0392 81.9501 32.2472 81.9501C32.7377 81.9501 33.0081 82.0566 33.0558 82.2734C33.2098 82.9443 33.8549 83.4427 34.9873 83.7628C35.7489 83.9727 36.5066 84.076 37.2619 84.076C38.8319 84.076 39.9205 83.7781 40.5275 83.1794C40.8048 82.9037 40.9429 82.5993 40.9429 82.2639C40.9429 81.5773 40.364 81.0757 39.2029 80.762C38.7377 80.6332 37.8127 80.4513 36.422 80.2166C35.217 80.0157 34.3078 79.7995 33.7035 79.5737C32.3006 79.0342 31.5989 78.2632 31.5989 77.2533C31.5989 76.6167 31.8661 76.0555 32.398 75.5729C32.8415 75.1811 33.4077 74.8831 34.0967 74.6759C34.9116 74.4349 35.8177 74.3125 36.8152 74.3125C39.1278 74.3125 40.745 74.8141 41.6605 75.8145C42.0315 76.2217 42.2204 76.6451 42.2267 77.0839C42.2267 77.3381 41.8616 77.4668 41.135 77.4668C40.6694 77.4668 40.4047 77.3724 40.3454 77.1846C40.002 76.0967 38.8542 75.5508 36.8972 75.5508C36.0002 75.5508 35.2546 75.6542 34.6635 75.8646C33.8797 76.1373 33.4897 76.5698 33.4897 77.153C33.4897 77.6989 33.9147 78.1123 34.764 78.404C35.1069 78.5169 35.8621 78.6677 37.029 78.8554C38.615 79.1191 39.7067 79.348 40.3042 79.5421C41.9907 80.1006 42.8338 80.9687 42.8338 82.1511ZM57.6867 85.0417C57.6931 85.0639 57.6963 85.0791 57.6963 85.095C57.6963 85.1735 57.5449 85.2394 57.2433 85.2864C57.0009 85.327 56.7776 85.346 56.576 85.346C55.9817 85.346 55.607 85.2458 55.453 85.0448L53.3891 81.0631H47.9998L46.0397 85.0043C45.9391 85.2047 45.5491 85.3054 44.8659 85.3054C44.1927 85.3054 43.8906 85.2047 43.9567 85.0043L49.3778 74.9269C49.5725 74.6447 49.9848 74.5034 50.6204 74.5034C51.3062 74.5034 51.7311 74.6447 51.8947 74.9269L57.6867 85.0417ZM52.826 79.9028L50.6394 76.1652L48.6195 79.9028H52.826ZM70.9855 84.8001C70.9855 85.0702 70.8124 85.2047 70.4696 85.2047C69.8213 85.2047 69.0476 84.7659 68.1442 83.8846L61.1885 77.1435V84.7316C61.1885 84.8945 61.0435 85.0227 60.754 85.1235C60.537 85.2047 60.3264 85.2458 60.1153 85.2458C59.5776 85.2458 59.3067 85.0734 59.3067 84.7316V74.8547C59.3067 74.5662 59.4987 74.4222 59.8824 74.4222C60.5116 74.4222 61.1535 74.7418 61.8082 75.3783L69.1042 82.5049V74.8547C69.1042 74.5256 69.4032 74.3626 70.0038 74.3626C70.6585 74.3626 70.9855 74.5256 70.9855 74.8547V84.8001ZM5.68411 91.4263C4.50502 91.4263 3.54931 91.6683 2.82272 92.1504C1.97335 92.7215 1.54733 93.568 1.54733 94.6923C1.54733 96.1532 2.22842 97.1241 3.58798 97.6062C4.25472 97.8487 4.9596 97.9685 5.70791 97.9685C6.25454 97.9685 6.82721 97.8968 7.42411 97.7528C8.07345 97.5946 8.60528 97.3836 9.01703 97.122V95.4339H5.68411C5.28724 95.4339 5.08981 95.2778 5.08981 94.9634C5.08981 94.6349 5.30151 94.4698 5.72486 94.4698H10.4945V98.6857C10.4585 98.9326 10.23 99.0549 9.80601 99.0549C9.3324 99.0549 9.07734 98.9326 9.04083 98.6857V98.3451C7.99403 98.7406 6.91131 98.9399 5.7926 98.9399C4.767 98.9399 3.83085 98.7981 2.98624 98.5154C1.96384 98.1679 1.20073 97.6399 0.695362 96.9349C0.231267 96.2824 0 95.5557 0 94.7551C0 93.9013 0.247627 93.1361 0.743475 92.4573C1.22244 91.8002 1.86962 91.3161 2.68299 91.0017C3.54931 90.6684 4.54845 90.5007 5.67667 90.5007C7.39764 90.5007 8.65823 90.8624 9.45726 91.5871C9.64517 91.7569 9.79441 91.9299 9.90707 92.1023C9.93882 92.1504 9.95318 92.2057 9.95318 92.2727C9.95318 92.4383 9.8568 92.5702 9.66688 92.6735C9.50812 92.7621 9.33924 92.8054 9.1636 92.8054C8.94713 92.8054 8.7958 92.7426 8.70902 92.6208C8.13167 91.8244 7.12302 91.4263 5.68411 91.4263ZM25.1035 92.9899C25.1035 93.9588 24.622 94.6422 23.6573 95.0426C24.4971 95.4217 24.9178 95.9539 24.9178 96.64V98.6762C24.9178 98.8656 24.6776 98.9616 24.1986 98.9616C23.7245 98.9616 23.4742 98.8656 23.4477 98.6762V96.6949C23.4477 96.5319 23.3493 96.3331 23.154 96.0979C22.8127 95.6855 22.2015 95.4792 21.3134 95.4792C21.3034 95.4792 21.2939 95.4792 21.2817 95.4792C21.2722 95.4792 21.2674 95.4792 21.2674 95.4792C21.133 95.4792 20.9954 95.4792 20.8562 95.4792H18.4135V98.6762C18.4135 98.8656 18.1584 98.9616 17.6482 98.9616C17.1598 98.9616 16.9142 98.8656 16.9142 98.6762V90.6394H20.726C21.4574 90.6394 22.0326 90.6658 22.4513 90.7164C23.5583 90.8556 24.3309 91.2438 24.7639 91.884C24.9903 92.2179 25.1035 92.587 25.1035 92.9899ZM23.5562 93.0353C23.5562 92.6756 23.4239 92.3714 23.1614 92.1192C22.9254 91.894 22.6201 91.7453 22.2491 91.673C22.0014 91.6277 21.5347 91.6034 20.8488 91.6034H18.4135V94.5152H20.8801C22.6634 94.5152 23.5562 94.021 23.5562 93.0353ZM42.0824 94.7309C42.0824 95.5894 41.8374 96.3452 41.3484 96.997C40.8795 97.6304 40.2344 98.1078 39.4136 98.4315C38.5642 98.7696 37.645 98.9399 36.6607 98.9399C35.6912 98.9399 34.808 98.7838 34.009 98.4696C33.0754 98.1098 32.3679 97.5751 31.889 96.8679C31.4556 96.225 31.2391 95.5441 31.2391 94.8248C31.2391 93.3713 31.7974 92.2606 32.9166 91.4958C33.8862 90.8266 35.1377 90.4933 36.6682 90.4933C37.6329 90.4933 38.5114 90.6446 39.3056 90.949C40.2297 91.2965 40.9298 91.8218 41.4087 92.5201C41.8585 93.1772 42.0824 93.9155 42.0824 94.7309ZM40.535 94.724C40.535 93.347 39.9237 92.3808 38.7013 91.8265C38.1049 91.5608 37.4286 91.4263 36.675 91.4263C35.4912 91.4263 34.5598 91.6994 33.884 92.2443C33.1521 92.8339 32.7864 93.6998 32.7864 94.839C32.7864 95.8822 33.1812 96.688 33.9703 97.2586C34.6709 97.7623 35.5658 98.0139 36.6539 98.0139C37.7869 98.0139 38.6992 97.7528 39.3898 97.2275C40.1524 96.6469 40.535 95.8126 40.535 94.724ZM57.1725 95.3569C57.1725 96.1052 57.074 96.6949 56.8793 97.122C56.3231 98.3329 54.9419 98.9399 52.7425 98.9399C50.6342 98.9399 49.2821 98.4268 48.6899 97.3979C48.401 96.8942 48.2571 96.2128 48.2571 95.3569V91.026C48.2063 90.7428 48.4375 90.6014 48.9524 90.6014C49.489 90.6014 49.7563 90.7428 49.7563 91.026V95.3474C49.7563 95.9444 49.8113 96.3832 49.9198 96.6664C50.2495 97.5345 51.147 97.9685 52.6102 97.9685C53.8279 97.9685 54.6603 97.7454 55.1081 97.2972C55.4859 96.9227 55.6732 96.2729 55.6732 95.3474V91.0233C55.6732 90.757 55.9383 90.6231 56.4702 90.6231C56.9391 90.6231 57.1725 90.757 57.1725 91.0233V95.3569ZM72.0001 92.9968C72.0001 94.6517 70.585 95.4792 67.7554 95.4792H65.3872V98.5249C65.3464 98.7717 65.1369 98.894 64.7617 98.894C64.5955 98.894 64.415 98.8608 64.2203 98.7933C63.9769 98.7169 63.8663 98.6283 63.888 98.5249V90.6394H67.623C68.3544 90.6394 68.9297 90.6658 69.3483 90.7164C70.4554 90.8556 71.2275 91.2464 71.6608 91.8893C71.8868 92.2226 72.0001 92.5918 72.0001 92.9968ZM70.4527 93.0353C70.4527 92.6756 70.3204 92.3714 70.0579 92.1192C69.8224 91.894 69.5165 91.7453 69.1461 91.673C68.8984 91.6277 68.4311 91.6034 67.7453 91.6034H65.3872V94.5152H67.777C69.56 94.5152 70.4527 94.021 70.4527 93.0353Z" fill="white"/>
</g>
<defs>
<clipPath id="clip0_527_2026">
<rect width="72" height="99" fill="white"/>
</clipPath>
</defs>
</svg>
